<svg width="32" height="33" viewBox="0 0 32 33" fill="none" xmlns="http://www.w3.org/2000/svg">
<path d="M16 4.07449C12.6052 4.07449 9.3495 5.42521 6.94903 7.8295C4.54857 10.2338 3.2 13.4947 3.2 16.8949C3.2 20.2951 4.54857 23.556 6.94903 25.9603C9.3495 28.3646 12.6052 29.7153 16 29.7153C19.3948 29.7153 22.6505 28.3646 25.051 25.9603C27.4514 23.556 28.8 20.2951 28.8 16.8949C28.8 13.4947 27.4514 10.2338 25.051 7.8295C22.6505 5.42521 19.3948 4.07449 16 4.07449ZM0 16.8949C0 8.04401 7.1632 0.869385 16 0.869385C24.8368 0.869385 32 8.04401 32 16.8949C32 25.7458 24.8368 32.9204 16 32.9204C7.1632 32.9204 0 25.7458 0 16.8949ZM16 8.88214C16.4243 8.88214 16.8313 9.05098 17.1314 9.35152C17.4314 9.65206 17.6 10.0597 17.6 10.4847V15.2924H22.4C22.8243 15.2924 23.2313 15.4612 23.5314 15.7617C23.8314 16.0623 24 16.4699 24 16.8949C24 17.3199 23.8314 17.7275 23.5314 18.0281C23.2313 18.3286 22.8243 18.4975 22.4 18.4975H17.6V23.3051C17.6 23.7301 17.4314 24.1378 17.1314 24.4383C16.8313 24.7388 16.4243 24.9077 16 24.9077C15.5757 24.9077 15.1687 24.7388 14.8686 24.4383C14.5686 24.1378 14.4 23.7301 14.4 23.3051V18.4975H9.6C9.17565 18.4975 8.76869 18.3286 8.46863 18.0281C8.16857 17.7275 8 17.3199 8 16.8949C8 16.4699 8.16857 16.0623 8.46863 15.7617C8.76869 15.4612 9.17565 15.2924 9.6 15.2924H14.4V10.4847C14.4 10.0597 14.5686 9.65206 14.8686 9.35152C15.1687 9.05098 15.5757 8.88214 16 8.88214Z" fill="#151515"/>
</svg>
