<svg width="64" height="64" viewBox="0 0 64 64" fill="none" xmlns="http://www.w3.org/2000/svg">
<path d="M10.6667 34.6666C12.1394 34.6666 13.3333 33.4727 13.3333 32C13.3333 30.5272 12.1394 29.3333 10.6667 29.3333C9.19391 29.3333 8 30.5272 8 32C8 33.4727 9.19391 34.6666 10.6667 34.6666Z" fill="#02353C"/>
<path d="M53.4937 29.3333H21.1737C19.7893 29.3333 18.667 30.4556 18.667 31.84V32.16C18.667 33.5444 19.7893 34.6666 21.1737 34.6666H53.4937C54.878 34.6666 56.0003 33.5444 56.0003 32.16V31.84C56.0003 30.4556 54.878 29.3333 53.4937 29.3333Z" fill="#02353C"/>
<path d="M53.4933 42.6667H10.5067C9.12227 42.6667 8 43.789 8 45.1734V45.4934C8 46.8777 9.12227 48 10.5067 48H53.4933C54.8777 48 56 46.8777 56 45.4934V45.1734C56 43.789 54.8777 42.6667 53.4933 42.6667Z" fill="#02353C"/>
<path d="M53.4933 16H10.5067C9.12227 16 8 17.1223 8 18.5067V18.8267C8 20.2111 9.12227 21.3333 10.5067 21.3333H53.4933C54.8777 21.3333 56 20.2111 56 18.8267V18.5067C56 17.1223 54.8777 16 53.4933 16Z" fill="#02353C"/>
</svg>
