<svg width="37" height="37" viewBox="0 0 37 37" fill="none" xmlns="http://www.w3.org/2000/svg">
<path d="M33.7161 17.7292C32.7294 16.0179 27.3027 7.43083 18.0836 7.70833C9.55815 7.92417 4.62482 15.4167 3.28357 17.7292C3.14826 17.9635 3.07703 18.2294 3.07703 18.5C3.07703 18.7706 3.14826 19.0365 3.28357 19.2708C4.25482 20.9513 9.45024 29.2917 18.5307 29.2917H18.9161C27.4415 29.0758 32.3902 21.5833 33.7161 19.2708C33.8514 19.0365 33.9226 18.7706 33.9226 18.5C33.9226 18.2294 33.8514 17.9635 33.7161 17.7292ZM18.839 26.2083C12.1944 26.3625 7.86232 20.6738 6.50565 18.5C8.04732 16.0179 12.0711 10.9458 18.2377 10.7917C24.8515 10.6221 29.199 16.3263 30.5711 18.5C28.9832 20.9821 25.0057 26.0542 18.839 26.2083Z" fill="#8F8F8F"/>
<path d="M18.5 13.1042C17.4328 13.1042 16.3895 13.4206 15.5022 14.0135C14.6149 14.6064 13.9233 15.4491 13.5149 16.4351C13.1065 17.4211 12.9996 18.506 13.2078 19.5527C13.416 20.5994 13.9299 21.5608 14.6845 22.3154C15.4392 23.0701 16.4006 23.584 17.4473 23.7922C18.494 24.0004 19.5789 23.8935 20.5649 23.4851C21.5508 23.0767 22.3935 22.3851 22.9864 21.4978C23.5793 20.6104 23.8958 19.5672 23.8958 18.5C23.8958 17.0689 23.3273 15.6965 22.3154 14.6846C21.3035 13.6727 19.931 13.1042 18.5 13.1042ZM18.5 20.8125C18.0426 20.8125 17.5955 20.6769 17.2152 20.4228C16.8349 20.1687 16.5385 19.8075 16.3635 19.385C16.1885 18.9624 16.1427 18.4974 16.2319 18.0489C16.3211 17.6003 16.5414 17.1882 16.8648 16.8648C17.1882 16.5414 17.6002 16.3212 18.0488 16.2319C18.4974 16.1427 18.9624 16.1885 19.3849 16.3635C19.8075 16.5386 20.1686 16.835 20.4227 17.2152C20.6768 17.5955 20.8125 18.0426 20.8125 18.5C20.8125 19.1133 20.5688 19.7015 20.1351 20.1352C19.7015 20.5689 19.1133 20.8125 18.5 20.8125Z" fill="#8F8F8F"/>
</svg>
