<svg width="28" height="31" viewBox="0 0 28 31" fill="none" xmlns="http://www.w3.org/2000/svg">
<path d="M27.1644 12.4033H26.0879V12.3414H14.0607V18.3051H21.6131C20.5113 21.7766 17.5506 24.2687 14.0607 24.2687C9.63262 24.2687 6.04248 20.2634 6.04248 15.3232C6.04248 10.3831 9.63262 6.37779 14.0607 6.37779C16.1046 6.37779 17.9642 7.23804 19.3801 8.64323L23.16 4.42619C20.7732 1.94457 17.5806 0.414154 14.0607 0.414154C6.68059 0.414154 0.697021 7.0897 0.697021 15.3232C0.697021 23.5568 6.68059 30.2323 14.0607 30.2323C21.4407 30.2323 27.4243 23.5568 27.4243 15.3232C27.4243 14.3236 27.3321 13.3478 27.1644 12.4033Z" fill="#FFC107"/>
<path d="M2.23779 8.38381L6.62842 11.9762C7.81644 8.69466 10.6936 6.37779 14.0606 6.37779C16.1046 6.37779 17.9641 7.23805 19.38 8.64323L23.1599 4.42619C20.7732 1.94457 17.5806 0.414154 14.0606 0.414154C8.92763 0.414154 4.4762 3.64719 2.23779 8.38381Z" fill="#FF3D00"/>
<path d="M14.0606 30.2323C17.5124 30.2323 20.6488 28.7585 23.0202 26.3619L18.8842 22.4572C17.5424 23.591 15.8747 24.2686 14.0606 24.2686C10.5847 24.2686 7.63331 21.796 6.52146 18.3452L2.16357 22.0912C4.37526 26.9195 8.86677 30.2323 14.0606 30.2323Z" fill="#4CAF50"/>
<path d="M27.1644 12.4033H26.0879V12.3414H14.0607V18.305H21.6131C21.0839 19.9726 20.1224 21.4106 18.8823 22.458C18.8829 22.4572 18.8836 22.4572 18.8843 22.4565L23.0203 26.3612C22.7277 26.6579 27.4243 22.7778 27.4243 15.3232C27.4243 14.3236 27.3321 13.3478 27.1644 12.4033Z" fill="#1976D2"/>
</svg>
