<svg width="17" height="22" viewBox="0 0 17 22" fill="none" xmlns="http://www.w3.org/2000/svg">
<path d="M13.198 7.72114V5.61452C13.198 2.66527 11.121 0.347992 8.47742 0.347992C5.83387 0.347992 3.75681 2.66527 3.75681 5.61452V7.72114C2.1518 7.72114 0.924438 9.09043 0.924438 10.8811V18.2542C0.924438 20.0448 2.1518 21.4141 3.75681 21.4141H13.198C14.803 21.4141 16.0304 20.0448 16.0304 18.2542V10.8811C16.0304 9.09043 14.803 7.72114 13.198 7.72114ZM5.64505 5.61452C5.64505 3.8239 6.87241 2.4546 8.47742 2.4546C10.0824 2.4546 11.3098 3.8239 11.3098 5.61452V7.72114H5.64505V5.61452ZM9.51595 14.5676L9.42154 14.673V16.1476C9.42154 16.7796 9.04389 17.2009 8.47742 17.2009C7.91094 17.2009 7.53329 16.7796 7.53329 16.1476V14.673C6.96682 14.041 6.87241 13.093 7.43888 12.461C8.00536 11.829 8.85507 11.7237 9.42154 12.3557C9.98801 12.8823 10.0824 13.9356 9.51595 14.5676Z" fill="white"/>
</svg>
