<svg width="81" height="80" viewBox="0 0 81 80" fill="none" xmlns="http://www.w3.org/2000/svg">
<path d="M22.6926 6.43845C22.6926 6.43845 29.2512 2.63741 40.3526 2.63741C51.454 2.63741 59.1484 5.73372 59.1484 5.73372C59.1484 5.73372 60.4118 2.36002 62.3001 1.22796C64.1884 0.0958952 67.4744 -0.458891 70.2498 0.80812C73.0251 2.07513 79.9601 10.307 80.3432 11.0117C80.7195 11.7164 80.9883 12.736 80.8606 13.0134C80.7329 13.2983 74.0936 25.0988 74.0936 25.0988C74.0936 25.0988 75.1016 27.8277 76.0827 31.6437C76.4994 33.2781 79.3285 41.7573 77.8165 51.8934C76.3045 62.0295 69.7727 72.8553 58.1404 76.379C46.535 79.8951 28.4986 80.5999 17.1486 74.2648C6.14127 68.1322 2.51249 58.6483 2.00849 48.7971C1.50449 38.9459 5.03248 30.6991 5.03248 30.6991L9.31982 24.1766C9.31982 24.1766 0.315058 14.2354 0.0664192 13.3958C-0.18894 12.5486 0.872816 10.9517 4.4008 7.57051C7.92878 4.18932 11.1947 1.18298 13.3115 0.410773C15.4888 -0.383921 17.9012 -0.031556 19.4132 1.52035C20.9252 3.06475 22.6926 6.43845 22.6926 6.43845Z" fill="#FFD3B0"/>
<path d="M60.3445 5.63799C59.0879 6.45518 60.5461 9.46901 61.2248 11.2683C62.421 14.4321 64.3227 20.6997 67.4677 24.6357C71.1233 29.2089 75.7937 28.7141 75.7937 28.7141C75.7937 28.7141 74.8462 25.123 74.4699 24.2833C74.5304 23.6535 77.1847 19.0053 77.9374 17.386C78.6967 15.7666 80.2692 13.0226 80.585 11.6132C80.9009 10.2037 80.1415 10.6311 79.7047 10.841C79.2612 11.0509 70.3707 16.9661 70.3707 16.9661C70.3707 16.9661 68.227 17.8808 67.5349 17.0336C66.8427 16.1864 65.5794 12.3179 64.6318 9.78389C64.0942 8.34445 62.6158 4.16106 60.3445 5.63799Z" fill="#FFA5A8"/>
<path d="M14.306 16.5087C14.5412 16.1939 16.9537 9.75385 17.4779 8.48684C17.9953 7.21983 19.467 3.73367 21.1201 5.27058C22.7732 6.80749 20.6967 12.7677 18.5665 16.9361C16.4363 21.1045 14.0708 24.958 12.4648 26.5924C11.5441 27.5295 9.8171 28.8115 7.87503 29.0214C6.73935 29.1489 4.79728 29.1789 4.79728 29.1789C4.79728 29.1789 5.31472 27.492 5.93296 26.0676C6.14127 25.5802 6.64527 24.4332 6.83343 23.9534C6.83343 23.586 5.36848 21.2619 4.37392 19.5751C3.82288 18.6379 0.3957 12.3928 0.34866 11.6506C0.301621 10.9084 1.15506 11.2308 2.04881 11.4407C2.94257 11.6506 8.9099 14.9269 8.9099 14.9269L14.306 16.5087Z" fill="#FFA5A8"/>
<path d="M22.1079 53.0797C21.026 54.3767 21.9197 56.0411 23.5258 57.3531C25.4679 58.935 29.016 61.9938 39.4656 61.9938C50.4863 61.9938 54.2024 58.0878 55.4792 57.0307C56.6284 56.0786 58.0127 54.4442 56.924 53.1247C55.8354 51.8052 53.0466 54.1293 52.2873 54.6016C51.5279 55.0739 45.7151 58.4551 39.7075 58.3502C34.8355 58.2677 29.7754 56.4534 28.2634 55.7637C25.4679 54.5042 23.3847 51.5503 22.1079 53.0797Z" fill="#312F2C"/>
<path d="M40.0839 38.9326C34.8356 38.6478 27.074 42.8386 27.1681 50.3882C27.2622 57.9378 33.6932 59.2948 39.8419 59.4672C45.6144 59.6247 52.4688 56.9332 52.4217 50.1783C52.3881 44.0457 47.7917 39.36 40.0839 38.9326Z" fill="#FD7E84"/>
<path d="M61.8903 38.6702C61.8903 41.819 60.3783 44.7354 57.8449 44.6829C55.4526 44.6304 53.7524 42.1339 53.7524 38.9851C53.7524 35.8363 55.6878 33.2873 57.8449 33.2873C60.002 33.2873 61.8903 35.5215 61.8903 38.6702Z" fill="#2C2F31"/>
<path d="M26.1802 38.8804C26.1802 42.0291 24.7623 44.5257 22.2289 44.5782C19.6484 44.6306 18.0424 42.1866 18.0424 39.0378C18.0424 35.889 20.0516 33.34 22.202 33.34C24.3524 33.34 26.1802 35.7316 26.1802 38.8804Z" fill="#2C2F31"/>
<path d="M47.1332 49.6385C47.1332 52.7873 46.4545 55.6662 44.7678 55.7037C42.7787 55.7561 42.4023 52.9372 42.4023 49.7959C42.4023 46.6547 43.0676 44.3081 44.7678 44.3605C46.5082 44.413 47.1332 46.4897 47.1332 49.6385Z" fill="#2C2F31"/>
<path d="M37.6177 49.3761C37.6177 52.5249 36.939 55.4038 35.2523 55.4412C33.2632 55.4937 32.8868 52.6748 32.8868 49.5335C32.8868 46.3922 33.5521 44.0456 35.2523 44.0981C36.9927 44.1506 37.6177 46.2273 37.6177 49.3761Z" fill="#2C2F31"/>
</svg>
