<svg width="152" height="95" viewBox="0 0 152 95" fill="none" xmlns="http://www.w3.org/2000/svg">
<path d="M33.2145 50.7229C33.2145 50.7229 35.034 42.4119 32.5524 37.473C30.5044 33.3968 20.1447 27.595 20.1447 27.595C17.912 33.1496 18.5007 42.428 19.4491 44.9942L20.1447 47.3509L18.8488 49.5465C16.2047 54.0264 12.3122 57.6474 7.64265 59.9706L4.46379 61.5523C3.15626 62.2031 2.6262 63.7852 3.28009 65.0864L7.73695 74.5151C7.73695 74.5151 24.4874 78.6824 36.1385 75.335" stroke="#024509" stroke-width="4.9631" stroke-miterlimit="10" stroke-linecap="round" stroke-linejoin="round"/>
<path d="M26.6788 30.3878C39.0379 12.8535 118.069 -24.5359 140.955 38.1343C143.429 44.9095 143.89 52.2525 142.387 59.3046C140.403 68.6131 137.448 82.4745 136.133 88.6435C135.74 90.487 134.106 91.8015 132.212 91.8015H132.181C129.536 91.8015 128.827 89.7054 128.328 87.1206C126.851 79.4541 127.168 67.6512 117.678 51.3549" stroke="#024509" stroke-width="4.9631" stroke-miterlimit="10" stroke-linecap="round" stroke-linejoin="round"/>
<path d="M62.4276 36.8195C62.4276 36.8195 71.3184 50.7229 64.9679 60.8347C59.9808 68.7753 53.4272 82.1722 50.8427 87.5589C50.1543 88.9939 48.6972 89.9056 47.0993 89.9056H47.0363C44.1899 89.9056 42.1975 87.1393 43.1085 84.456C44.9887 78.9177 47.0008 69.727 44.6458 59.5708" stroke="#024509" stroke-width="4.9631" stroke-miterlimit="10" stroke-linecap="round" stroke-linejoin="round"/>
<path d="M66.238 62.0986C66.238 62.0986 105.612 65.8905 118.314 57.0428" stroke="#024509" stroke-width="4.9631" stroke-miterlimit="10" stroke-linecap="round" stroke-linejoin="round"/>
<path d="M106.999 62.1677C106.999 62.1677 106.999 72.0457 104.022 82.9533C103.269 85.7135 104.345 88.5247 107.219 88.5247C108.67 88.5247 109.988 87.6853 110.596 86.3745L116.925 74.5151" stroke="#024509" stroke-width="4.9631" stroke-miterlimit="10" stroke-linecap="round" stroke-linejoin="round"/>
<path d="M64.8503 78.4132L64.3574 83.8068C64.0182 87.5211 67.9083 90.1632 71.2603 88.4953L71.3033 88.4738C72.8145 87.7219 73.8149 86.2325 73.9352 84.5555L74.7387 64.6372" stroke="#024509" stroke-width="4.9631" stroke-miterlimit="10" stroke-linecap="round" stroke-linejoin="round"/>
<path d="M139.964 20.0113C139.964 20.0113 155.206 16.2194 146.315 27.5951" stroke="#024509" stroke-width="4.9631" stroke-miterlimit="10" stroke-linecap="round" stroke-linejoin="round"/>
</svg>
