<svg width="24" height="24" viewBox="0 0 24 24" fill="none" xmlns="http://www.w3.org/2000/svg">
<path d="M18.95 4.8V5.05H19.2H20.4C21.2885 5.05 22.1406 5.40295 22.7688 6.03119C23.3971 6.65944 23.75 7.51153 23.75 8.4V15.6C23.75 16.4885 23.3971 17.3406 22.7688 17.9688C22.1406 18.5971 21.2885 18.95 20.4 18.95H19.2H18.95V19.2V22.8C18.95 23.052 18.8499 23.2936 18.6718 23.4718C18.4936 23.6499 18.252 23.75 18 23.75H6C5.74804 23.75 5.50641 23.6499 5.32825 23.4718C5.15009 23.2936 5.05 23.052 5.05 22.8V19.2V18.95H4.8H3.6C2.71152 18.95 1.85944 18.5971 1.23119 17.9688C0.602946 17.3406 0.25 16.4885 0.25 15.6V8.4C0.25 7.51153 0.602946 6.65944 1.23119 6.03119C1.85944 5.40295 2.71152 5.05 3.6 5.05H4.8H5.05V4.8V1.2C5.05 0.948044 5.15009 0.706408 5.32825 0.528248C5.50641 0.350089 5.74804 0.25 6 0.25H18C18.252 0.25 18.4936 0.350089 18.6718 0.528248C18.8499 0.706408 18.95 0.948044 18.95 1.2V4.8ZM7.2 2.15H6.95V2.4V4.8V5.05H7.2H16.8H17.05V4.8V2.4V2.15H16.8H7.2ZM16.8 21.85H17.05V21.6V16.8V16.55H16.8H7.2H6.95V16.8V21.6V21.85H7.2H16.8ZM18.95 16.8V17.05H19.2H20.4C20.7846 17.05 21.1534 16.8972 21.4253 16.6253C21.6972 16.3534 21.85 15.9846 21.85 15.6V8.4C21.85 8.01544 21.6972 7.64662 21.4253 7.3747C21.1534 7.10277 20.7846 6.95 20.4 6.95H3.6C3.21544 6.95 2.84662 7.10277 2.5747 7.3747C2.30277 7.64662 2.15 8.01544 2.15 8.4V15.6C2.15 15.9846 2.30277 16.3534 2.5747 16.6253C2.84662 16.8972 3.21544 17.05 3.6 17.05H4.8H5.05V16.8V15.6C5.05 15.348 5.15009 15.1064 5.32825 14.9282C5.50641 14.7501 5.74804 14.65 6 14.65H18C18.252 14.65 18.4936 14.7501 18.6718 14.9282C18.8499 15.1064 18.95 15.348 18.95 15.6V16.8ZM5.47221 10.0101C5.62844 9.90572 5.81211 9.85 6 9.85C6.25196 9.85 6.49359 9.95009 6.67175 10.1282C6.84991 10.3064 6.95 10.548 6.95 10.8C6.95 10.9879 6.89428 11.1716 6.7899 11.3278C6.68551 11.484 6.53714 11.6058 6.36355 11.6777C6.18996 11.7496 5.99895 11.7684 5.81466 11.7317C5.63038 11.6951 5.46111 11.6046 5.32825 11.4718C5.19539 11.3389 5.10491 11.1696 5.06825 10.9853C5.0316 10.8011 5.05041 10.61 5.12231 10.4365C5.19422 10.2629 5.31598 10.1145 5.47221 10.0101Z" fill="#8AF67C" stroke="black" stroke-width="0.5"/>
</svg>
