<svg width="24" height="24" viewBox="0 0 24 24" fill="none" xmlns="http://www.w3.org/2000/svg">
<path d="M20.4522 7.93043L19.6435 23.0087C19.6174 23.5565 19.1478 24 18.6 24H5.39998C4.85216 24 4.38259 23.5565 4.35651 23.0087L3.54781 7.93043C3.52172 7.35652 3.9652 6.86086 4.53911 6.83478C5.11303 6.80869 5.60868 7.25217 5.63477 7.82608L6.39129 21.913H17.6348L18.3913 7.82608C18.4174 7.25217 18.913 6.80869 19.4869 6.83478C20.0348 6.86086 20.4782 7.35652 20.4522 7.93043ZM23.2174 4.43478C23.2174 5.00869 22.7478 5.47826 22.1739 5.47826H1.82607C1.25216 5.47826 0.782593 5.00869 0.782593 4.43478C0.782593 3.86086 1.25216 3.3913 1.82607 3.3913H7.5652V1.04347C7.5652 0.547821 7.90433 0.260864 8.39998 0.260864H15.6C16.0956 0.260864 16.4348 0.547821 16.4348 1.04347V3.3913H22.1739C22.7478 3.3913 23.2174 3.86086 23.2174 4.43478ZM9.39129 3.3913H14.6087V2.08695H9.39129V3.3913ZM9.83477 20.3478C10.3565 20.3478 10.7478 19.8522 10.7478 19.3565L10.4869 8.08695C10.4869 7.5913 10.0695 7.17391 9.54781 7.17391C9.05216 7.17391 8.63477 7.5913 8.66085 8.11304L8.92172 19.4087C8.92172 19.9043 9.33911 20.3478 9.83477 20.3478ZM14.1391 20.3478C14.6348 20.3478 15.0522 19.9304 15.0522 19.4348L15.313 8.16521C15.313 7.66956 14.9217 7.22608 14.4261 7.22608C13.9043 7.22608 13.513 7.61739 13.4869 8.11304L13.2261 19.3826C13.2 19.9043 13.6174 20.3478 14.1391 20.3478C14.113 20.3478 14.113 20.3478 14.1391 20.3478Z" fill="#CD0000"/>
</svg>
